<svg version="1.1" id="Layer_1" xmlns="http://www.w3.org/2000/svg" xmlns:xlink="http://www.w3.org/1999/xlink" x="0px" y="0px"
	 width="100%" viewBox="0 0 512 512" enable-background="new 0 0 512 512" xml:space="preserve">
<path fill="#000000" opacity="1.000000" stroke="none" 
	d="
M1.000000,191.000000 
	C1.000000,127.333336 1.000000,64.166664 1.000000,1.000000 
	C171.666672,1.000000 342.333344,1.000000 513.000000,1.000000 
	C513.000000,171.666672 513.000000,342.333344 513.000000,513.000000 
	C342.333344,513.000000 171.666672,513.000000 1.000000,513.000000 
	C1.000000,405.833344 1.000000,298.666656 1.000000,191.000000 
M424.967651,127.954803 
	C424.978424,107.622032 424.992706,87.289261 424.998260,66.956490 
	C425.000427,59.042995 422.931946,57.001030 414.929565,57.000885 
	C334.764709,56.999416 254.599808,56.969551 174.435120,57.086681 
	C170.274689,57.092758 168.296432,55.943382 166.955734,51.836712 
	C163.985229,42.737747 158.334885,35.402210 149.971069,30.516819 
	C128.008408,17.688196 98.956726,26.750227 90.538261,53.115662 
	C89.500420,56.366058 87.727036,57.121895 84.687675,57.044605 
	C78.691696,56.892136 72.689079,56.994900 66.689224,57.001259 
	C59.187840,57.009209 57.001724,59.224102 57.001377,66.837715 
	C56.998829,122.503120 56.999989,178.168533 57.000000,233.833939 
	C57.000004,262.666626 56.991379,291.499329 57.007442,320.332001 
	C57.010616,326.028076 59.380413,328.562622 64.948639,328.977814 
	C64.948639,328.977814 65.070122,329.063599 65.004875,329.988190 
	C65.004875,334.789032 65.004875,339.589844 65.004875,344.601715 
	C69.463791,345.816162 73.061058,348.015381 72.920715,353.225159 
	C72.788132,358.146606 69.317596,360.255859 65.099258,361.325958 
	C65.099258,366.703827 65.099258,371.834137 64.346115,376.994690 
	C59.351723,378.282257 56.890938,381.365692 56.963562,386.661682 
	C57.093655,396.148865 56.982590,405.639160 57.006195,415.128082 
	C57.022701,421.762085 60.344414,424.980438 67.148933,424.997253 
	C77.137146,425.021942 87.125420,425.027740 97.012039,425.965942 
	C97.012039,430.791382 97.012039,435.616791 97.012039,440.369934 
	C104.107262,443.355377 104.986099,444.695007 104.992508,452.402985 
	C104.998131,459.172272 104.993690,465.941589 104.993690,472.731110 
	C217.268036,472.731110 328.977966,472.731110 440.737793,472.731110 
	C440.737793,358.079742 440.737793,243.703705 440.737793,129.078171 
	C435.341217,129.078171 430.208221,129.078171 424.994537,128.967255 
	C424.994537,128.967255 424.901611,128.866348 424.967651,127.954803 
z"/>
<path fill="#F2F2F2" opacity="1.000000" stroke="none" 
	d="
M65.099258,376.964417 
	C65.099258,371.834137 65.099258,366.703827 65.099258,361.325958 
	C69.317596,360.255859 72.788132,358.146606 72.920715,353.225159 
	C73.061058,348.015381 69.463791,345.816162 65.004875,344.601715 
	C65.004875,339.589844 65.004875,334.789032 65.399963,329.472839 
	C71.877762,326.899841 72.996552,325.268555 72.997025,318.237793 
	C73.002403,238.254837 73.000443,158.271896 73.000443,78.288948 
	C73.000443,76.545723 73.000443,74.802498 73.000443,73.200516 
	C78.693825,73.200516 83.647957,73.200516 88.999557,73.200516 
	C88.999557,84.681152 89.173790,95.970108 88.944344,107.250847 
	C88.761330,116.248848 89.783546,124.166344 97.394722,130.777695 
	C104.113167,136.613541 111.097412,138.481094 119.034050,135.982285 
	C127.685837,133.258316 134.010483,127.106316 135.991074,118.223564 
	C137.400116,111.904160 136.870132,105.124748 136.960800,98.547256 
	C137.042267,92.636108 133.938660,89.080421 129.078781,89.026535 
	C124.192062,88.972336 121.085236,92.528648 121.010666,98.379997 
	C120.946968,103.378052 121.217163,108.392723 120.899277,113.371933 
	C120.534203,119.090279 118.119934,121.148216 112.884857,120.969116 
	C107.603523,120.788437 105.218239,118.474922 105.049538,112.925674 
	C104.887573,107.598289 105.002762,102.262398 105.001091,96.930244 
	C104.998604,89.005661 105.000443,81.081078 105.000443,73.304733 
	C206.691391,73.304733 307.746582,73.304733 408.706329,73.304733 
	C408.706329,163.999405 408.706329,254.389511 408.706329,344.999939 
	C390.439148,344.999939 372.464294,344.969116 354.489624,345.016205 
	C347.953766,345.033295 345.039307,347.943970 345.016541,354.467651 
	C344.964203,369.464264 344.999695,384.461212 344.999603,399.458008 
	C344.999573,402.565216 344.999573,405.672424 344.999573,408.731262 
	C254.050568,408.731262 163.660553,408.731262 73.000092,408.731262 
	C73.000092,401.161835 73.040520,393.857269 72.987488,386.553406 
	C72.943939,380.556122 71.146400,378.434662 65.099258,376.964417 
M107.690262,171.060822 
	C104.966690,173.854736 104.122856,177.012848 105.960014,180.608978 
	C107.914680,184.435135 111.351463,185.031891 115.249146,185.030106 
	C199.054489,184.991714 282.859863,185.003860 366.665222,184.995316 
	C373.319702,184.994644 377.061157,182.000977 376.968262,176.858948 
	C376.878021,171.865173 373.272797,169.006821 366.892883,169.006027 
	C282.920898,168.995605 198.948914,168.987167 114.977013,169.064240 
	C112.755768,169.066284 110.535416,170.035706 107.690262,171.060822 
M307.500000,216.999054 
	C244.043381,216.999054 180.586761,216.998840 117.130135,217.000381 
	C115.631332,217.000412 114.122993,216.915039 112.635529,217.050293 
	C108.209930,217.452682 105.123695,220.652283 105.029175,224.819412 
	C104.930298,229.178467 108.121124,232.562119 112.783821,232.959106 
	C114.107254,233.071793 115.447037,232.999863 116.779327,232.999878 
	C199.556046,233.001068 282.332764,233.001450 365.109467,232.997177 
	C366.773895,232.997086 368.485413,233.180679 370.093658,232.864716 
	C374.371674,232.024261 376.951050,229.340729 376.905060,224.921661 
	C376.859161,220.512054 374.249939,217.892197 369.949951,217.099747 
	C368.657898,216.861633 367.292480,217.002258 365.960693,217.001968 
	C346.807129,216.997726 327.653564,216.999054 307.500000,216.999054 
M112.158905,265.052612 
	C106.837578,266.843292 104.378006,270.061981 105.101074,274.288727 
	C105.839973,278.607971 109.171104,280.924744 114.752968,281.000244 
	C115.085976,281.004761 115.419090,281.000916 115.752159,281.000916 
	C161.881927,281.000916 208.011688,281.001709 254.141449,280.996979 
	C255.472519,280.996826 256.845978,281.139557 258.126923,280.869965 
	C262.392822,279.972229 264.969177,277.310059 264.904999,272.891022 
	C264.841034,268.483246 262.221313,265.885040 257.921539,265.090942 
	C256.790985,264.882141 255.596375,265.001740 254.431183,265.001770 
	C207.302246,265.002747 160.173309,265.007263 112.158905,265.052612 
z"/>
<path fill="#040202" opacity="1.000000" stroke="none" 
	d="
M64.722687,376.979553 
	C71.146400,378.434662 72.943939,380.556122 72.987488,386.553406 
	C73.040520,393.857269 73.000092,401.161835 73.000092,408.731262 
	C163.660553,408.731262 254.050568,408.731262 344.999573,408.731262 
	C344.999573,405.672424 344.999573,402.565216 344.999603,399.458008 
	C344.999695,384.461212 344.964203,369.464264 345.016541,354.467651 
	C345.039307,347.943970 347.953766,345.033295 354.489624,345.016205 
	C372.464294,344.969116 390.439148,344.999939 408.706329,344.999939 
	C408.706329,254.389511 408.706329,163.999405 408.706329,73.304733 
	C307.746582,73.304733 206.691391,73.304733 105.000443,73.304733 
	C105.000443,81.081078 104.998604,89.005661 105.001091,96.930244 
	C105.002762,102.262398 104.887573,107.598289 105.049538,112.925674 
	C105.218239,118.474922 107.603523,120.788437 112.884857,120.969116 
	C118.119934,121.148216 120.534203,119.090279 120.899277,113.371933 
	C121.217163,108.392723 120.946968,103.378052 121.010666,98.379997 
	C121.085236,92.528648 124.192062,88.972336 129.078781,89.026535 
	C133.938660,89.080421 137.042267,92.636108 136.960800,98.547256 
	C136.870132,105.124748 137.400116,111.904160 135.991074,118.223564 
	C134.010483,127.106316 127.685837,133.258316 119.034050,135.982285 
	C111.097412,138.481094 104.113167,136.613541 97.394722,130.777695 
	C89.783546,124.166344 88.761330,116.248848 88.944344,107.250847 
	C89.173790,95.970108 88.999557,84.681152 88.999557,73.200516 
	C83.647957,73.200516 78.693825,73.200516 73.000443,73.200516 
	C73.000443,74.802498 73.000443,76.545723 73.000443,78.288948 
	C73.000443,158.271896 73.002403,238.254837 72.997025,318.237793 
	C72.996552,325.268555 71.877762,326.899841 65.432587,329.010559 
	C65.070122,329.063599 64.948639,328.977814 64.878632,328.591309 
	C59.281528,325.272552 58.904774,320.361664 58.914349,314.755310 
	C59.042389,239.788925 58.999981,164.822220 59.000023,89.855606 
	C59.000027,82.192352 58.945400,74.528572 59.018635,66.866020 
	C59.073078,61.169582 61.187428,59.080494 66.910210,59.016582 
	C73.239929,58.945892 79.574883,58.867870 85.900078,59.051125 
	C89.470337,59.154568 91.373497,57.788101 92.414185,54.340900 
	C97.809395,36.469612 114.047760,25.399408 132.163025,27.036310 
	C148.052917,28.472130 160.027985,38.270687 164.860703,51.684162 
	C167.434189,58.827000 166.966080,58.999348 174.319550,58.999432 
	C253.784164,59.000340 333.248779,58.999485 412.713379,59.000725 
	C421.579193,59.000862 422.998749,60.450424 422.999542,69.487038 
	C423.001099,87.645615 422.951294,105.804550 423.082672,123.962181 
	C423.094513,125.601204 424.267731,127.231827 424.901611,128.866348 
	C424.901611,128.866348 424.994537,128.967255 425.002136,129.485229 
	C425.006714,203.156143 424.970093,276.309113 425.079071,349.461853 
	C425.086029,354.150909 423.758240,357.649536 420.413544,360.956787 
	C400.744415,380.405487 381.152771,399.934662 361.740295,419.638947 
	C357.935150,423.501312 354.021271,425.114136 348.564911,425.105255 
	C264.748016,424.968811 180.930801,425.027985 97.113663,425.041626 
	C87.125420,425.027740 77.137146,425.021942 67.148933,424.997253 
	C60.344414,424.980438 57.022701,421.762085 57.006195,415.128082 
	C56.982590,405.639160 57.093655,396.148865 56.963562,386.661682 
	C56.890938,381.365692 59.351723,378.282257 64.722687,376.979553 
M393.606689,365.032440 
	C394.874817,364.090149 396.142914,363.147827 397.411011,362.205505 
	C397.106873,361.882202 396.802765,361.558899 396.498627,361.235596 
	C384.777679,361.235596 373.056763,361.235596 361.259644,361.235596 
	C361.259644,373.177521 361.259644,384.882568 361.259644,397.479767 
	C372.252106,386.447205 382.670685,375.990631 393.606689,365.032440 
M123.626877,39.990295 
	C116.302528,41.892899 110.053696,45.318195 106.784439,52.563221 
	C104.830818,56.892658 106.128708,58.948647 110.731018,58.975029 
	C122.862267,59.044582 134.994370,59.038258 147.125717,58.978893 
	C151.698334,58.956520 153.321503,56.275993 151.435089,52.162033 
	C147.417740,43.400852 134.058823,37.340977 123.626877,39.990295 
z"/>
<path fill="#FFC943" opacity="1.000000" stroke="none" 
	d="
M97.062851,425.503784 
	C180.930801,425.027985 264.748016,424.968811 348.564911,425.105255 
	C354.021271,425.114136 357.935150,423.501312 361.740295,419.638947 
	C381.152771,399.934662 400.744415,380.405487 420.413544,360.956787 
	C423.758240,357.649536 425.086029,354.150909 425.079071,349.461853 
	C424.970093,276.309113 425.006714,203.156143 425.042480,129.540695 
	C430.208221,129.078171 435.341217,129.078171 440.737793,129.078171 
	C440.737793,243.703705 440.737793,358.079742 440.737793,472.731110 
	C328.977966,472.731110 217.268036,472.731110 104.993690,472.731110 
	C104.993690,465.941589 104.998131,459.172272 104.992508,452.402985 
	C104.986099,444.695007 104.107262,443.355377 97.012039,440.369934 
	C97.012039,435.616791 97.012039,430.791382 97.062851,425.503784 
z"/>
<path fill="#030202" opacity="1.000000" stroke="none" 
	d="
M424.934631,128.410583 
	C424.267731,127.231827 423.094513,125.601204 423.082672,123.962181 
	C422.951294,105.804550 423.001099,87.645615 422.999542,69.487038 
	C422.998749,60.450424 421.579193,59.000862 412.713379,59.000725 
	C333.248779,58.999485 253.784164,59.000340 174.319550,58.999432 
	C166.966080,58.999348 167.434189,58.827000 164.860703,51.684162 
	C160.027985,38.270687 148.052917,28.472130 132.163025,27.036310 
	C114.047760,25.399408 97.809395,36.469612 92.414185,54.340900 
	C91.373497,57.788101 89.470337,59.154568 85.900078,59.051125 
	C79.574883,58.867870 73.239929,58.945892 66.910210,59.016582 
	C61.187428,59.080494 59.073078,61.169582 59.018635,66.866020 
	C58.945400,74.528572 59.000027,82.192352 59.000023,89.855606 
	C58.999981,164.822220 59.042389,239.788925 58.914349,314.755310 
	C58.904774,320.361664 59.281528,325.272552 64.824562,328.540253 
	C59.380413,328.562622 57.010616,326.028076 57.007442,320.332001 
	C56.991379,291.499329 57.000004,262.666626 57.000000,233.833939 
	C56.999989,178.168533 56.998829,122.503120 57.001377,66.837715 
	C57.001724,59.224102 59.187840,57.009209 66.689224,57.001259 
	C72.689079,56.994900 78.691696,56.892136 84.687675,57.044605 
	C87.727036,57.121895 89.500420,56.366058 90.538261,53.115662 
	C98.956726,26.750227 128.008408,17.688196 149.971069,30.516819 
	C158.334885,35.402210 163.985229,42.737747 166.955734,51.836712 
	C168.296432,55.943382 170.274689,57.092758 174.435120,57.086681 
	C254.599808,56.969551 334.764709,56.999416 414.929565,57.000885 
	C422.931946,57.001030 425.000427,59.042995 424.998260,66.956490 
	C424.992706,87.289261 424.978424,107.622032 424.934631,128.410583 
z"/>
<path fill="#050303" opacity="1.000000" stroke="none" 
	d="
M108.002457,170.807404 
	C110.535416,170.035706 112.755768,169.066284 114.977013,169.064240 
	C198.948914,168.987167 282.920898,168.995605 366.892883,169.006027 
	C373.272797,169.006821 376.878021,171.865173 376.968262,176.858948 
	C377.061157,182.000977 373.319702,184.994644 366.665222,184.995316 
	C282.859863,185.003860 199.054489,184.991714 115.249146,185.030106 
	C111.351463,185.031891 107.914680,184.435135 105.960014,180.608978 
	C104.122856,177.012848 104.966690,173.854736 108.002457,170.807404 
z"/>
<path fill="#050303" opacity="1.000000" stroke="none" 
	d="
M308.000000,216.999054 
	C327.653564,216.999054 346.807129,216.997726 365.960693,217.001968 
	C367.292480,217.002258 368.657898,216.861633 369.949951,217.099747 
	C374.249939,217.892197 376.859161,220.512054 376.905060,224.921661 
	C376.951050,229.340729 374.371674,232.024261 370.093658,232.864716 
	C368.485413,233.180679 366.773895,232.997086 365.109467,232.997177 
	C282.332764,233.001450 199.556046,233.001068 116.779327,232.999878 
	C115.447037,232.999863 114.107254,233.071793 112.783821,232.959106 
	C108.121124,232.562119 104.930298,229.178467 105.029175,224.819412 
	C105.123695,220.652283 108.209930,217.452682 112.635529,217.050293 
	C114.122993,216.915039 115.631332,217.000412 117.130135,217.000381 
	C180.586761,216.998840 244.043381,216.999054 308.000000,216.999054 
z"/>
<path fill="#050303" opacity="1.000000" stroke="none" 
	d="
M112.601639,265.031982 
	C160.173309,265.007263 207.302246,265.002747 254.431183,265.001770 
	C255.596375,265.001740 256.790985,264.882141 257.921539,265.090942 
	C262.221313,265.885040 264.841034,268.483246 264.904999,272.891022 
	C264.969177,277.310059 262.392822,279.972229 258.126923,280.869965 
	C256.845978,281.139557 255.472519,280.996826 254.141449,280.996979 
	C208.011688,281.001709 161.881927,281.000916 115.752159,281.000916 
	C115.419090,281.000916 115.085976,281.004761 114.752968,281.000244 
	C109.171104,280.924744 105.839973,278.607971 105.101074,274.288727 
	C104.378006,270.061981 106.837578,266.843292 112.601639,265.031982 
z"/>
<path fill="#F2F2F2" opacity="1.000000" stroke="none" 
	d="
M393.347961,365.283264 
	C382.670685,375.990631 372.252106,386.447205 361.259644,397.479767 
	C361.259644,384.882568 361.259644,373.177521 361.259644,361.235596 
	C373.056763,361.235596 384.777679,361.235596 396.498627,361.235596 
	C396.802765,361.558899 397.106873,361.882202 397.411011,362.205505 
	C396.142914,363.147827 394.874817,364.090149 393.347961,365.283264 
z"/>
<path fill="#030202" opacity="1.000000" stroke="none" 
	d="
M124.043015,39.957741 
	C134.058823,37.340977 147.417740,43.400852 151.435089,52.162033 
	C153.321503,56.275993 151.698334,58.956520 147.125717,58.978893 
	C134.994370,59.038258 122.862267,59.044582 110.731018,58.975029 
	C106.128708,58.948647 104.830818,56.892658 106.784439,52.563221 
	C110.053696,45.318195 116.302528,41.892899 124.043015,39.957741 
M131.797775,41.786251 
	C121.700684,39.900867 111.477020,46.961945 109.121117,52.585640 
	C107.806450,55.723831 108.567451,56.983444 111.813568,56.987019 
	C123.290543,56.999653 134.767960,57.045082 146.244263,56.956303 
	C149.609451,56.930271 150.914856,55.520882 148.801895,52.216339 
	C144.983109,46.243999 139.678299,42.728924 131.797775,41.786251 
z"/>
<path fill="#000000" opacity="1.000000" stroke="none" 
	d="
M132.202942,41.861092 
	C139.678299,42.728924 144.983109,46.243999 148.801895,52.216339 
	C150.914856,55.520882 149.609451,56.930271 146.244263,56.956303 
	C134.767960,57.045082 123.290543,56.999653 111.813568,56.987019 
	C108.567451,56.983444 107.806450,55.723831 109.121117,52.585640 
	C111.477020,46.961945 121.700684,39.900867 132.202942,41.861092 
z"/>
</svg>